<?xml version="1.0" encoding="utf-8"?>
<!-- Svg Vector Icons : http://www.onlinewebfonts.com/icon -->
<!DOCTYPE svg PUBLIC "-//W3C//DTD SVG 1.1//EN" "http://www.w3.org/Graphics/SVG/1.1/DTD/svg11.dtd">
<svg version="1.1" xmlns="http://www.w3.org/2000/svg" xmlns:xlink="http://www.w3.org/1999/xlink" x="0px" y="0px" viewBox="0 0 1000 1000" enable-background="new 0 0 1000 1000" xml:space="preserve">
<metadata> Svg Vector Icons : http://www.onlinewebfonts.com/icon </metadata>
<g><g transform="translate(0.000000,511.000000) scale(0.100000,-0.100000)"><path d="M2004.9,4977.8c-6.2-26.6-16.4-106.4-22.5-180.1c-22.5-239.5-116.7-470.7-366.3-898.5c-235.4-403.2-235.4-804.4,0-1066.3c92.1-102.3,245.6-180.1,280.4-145.3c16.4,16.4,10.2,59.4-24.5,161.7c-36.9,106.4-47.1,167.8-38.9,270.2c10.2,159.6,51.2,253.8,227.2,501.4c178.1,249.7,225.1,296.8,276.3,282.4c61.4-14.3,161.7-180.1,198.5-329.5c43-165.8,20.5-282.5-104.4-538.3c-51.2-104.4-90.1-208.8-86-231.3c8.2-61.4,81.9-63.4,208.8-6.1c304.9,141.2,517.8,495.3,464.6,779.8c-51.2,278.3-378.6,794.1-837.1,1318.1C2062.2,5031,2019.2,5051.5,2004.9,4977.8z"/><path d="M4784.3,5000.3c-8.2-12.3-20.5-94.2-28.7-180.1c-24.6-235.4-110.5-462.5-300.9-796.2c-94.1-165.8-186.2-352-204.7-413.4c-38.9-133-45-403.2-10.2-526c53.2-180.1,243.6-386.8,372.5-399.1c45-6.1,51.2,2,49.1,55.3c-2.1,34.8-18.4,98.2-34.8,143.3c-79.8,198.5-22.5,423.7,169.9,683.6c65.5,90.1,143.3,198.5,171.9,243.6c92.1,147.4,178.1,122.8,280.4-81.9c116.7-231.3,98.2-423.7-69.6-736.8c-69.6-128.9-81.9-165.8-63.4-194.4c34.8-57.3,98.2-55.3,221,6.1c149.4,73.7,307,233.3,386.8,397.1c57.3,114.6,65.5,153.5,65.5,288.6c0,151.4-4.1,167.8-118.7,390.9c-149.4,292.7-478.9,755.2-749.1,1045.8C4827.3,5026.9,4808.9,5037.2,4784.3,5000.3z"/><path d="M7549.4,5002.4c-6.1-10.2-20.5-98.2-30.7-192.4c-28.7-237.4-112.6-460.5-307-800.3c-194.4-335.7-231.3-448.2-231.3-685.6c0-288.6,118.7-515.8,323.4-614c141.2-69.6,161.7-32.7,92.1,163.7c-73.7,210.8-38.9,403.2,112.6,618.1c49.1,71.6,133,190.3,184.2,264c51.2,75.7,110.5,141.2,131,147.4c61.4,16.4,120.7-38.9,188.3-174c116.7-231.3,100.3-413.4-69.6-740.9c-61.4-122.8-77.8-169.9-61.4-194.4c32.7-53.2,98.2-49.1,221,10.2c235.4,116.7,435.9,395,456.4,632.4c20.5,259.9-186.2,648.8-650.8,1223.9C7616.9,5020.8,7582.1,5053.5,7549.4,5002.4z"/><path d="M1828.9,2038.8c-112.6-55.3-120.7-102.3-120.7-763.4l-2.1-587.4l-259.9-8.2c-251.7-6.1-266.1-8.2-390.9-75.7C912,526.2,811.7,421.9,740,276.6c-45-90.1-47.1-116.7-53.2-640.6l-6.1-548.5h94.1c126.9,0,196.5,38.9,388.9,225.1c264,249.7,513.7,341.8,800.3,292.7c198.5-34.8,341.8-114.6,530.1-296.8c180.1-171.9,270.2-221,399.1-221c131,0,214.9,47.1,376.6,214.9c323.4,329.5,706.1,403.2,1086.8,210.8c45-24.5,155.6-114.6,245.6-202.6c178.1-171.9,268.1-223.1,399.1-223.1c131,0,221,51.2,399.1,223.1c90.1,88,200.6,178.1,245.6,202.6c380.7,192.4,763.4,118.7,1086.8-210.8c161.7-167.8,245.6-214.9,376.6-214.9c128.9,0,219,49.1,399.1,221c188.3,182.2,331.6,262,530.1,296.8c286.5,49.1,542.4-45,790-288.6c171.9-169.9,276.3-227.2,405.2-229.2h88l-6.1,538.3l-6.1,538.3L9242,299.1c-75.7,155.5-169.9,245.6-331.6,321.3c-98.2,45-145.3,53.2-372.5,59.3l-262,8.2v630.4v628.3l-53.2,53.2c-71.6,71.6-126.9,79.8-517.8,71.6l-333.6-6.1l-59.3-67.5l-59.4-65.5v-624.2V683.8h-869.8h-869.8v624.2v624.2l-59.3,65.5l-59.4,67.5l-358.2,6.1c-284.5,6.2-372.5,0-431.8-24.6c-129-53.2-135.1-92.1-135.1-769.6V683.8h-859.6h-859.6v601.7c0,341.8-8.2,626.3-20.5,654.9c-10.2,28.7-49.1,71.6-86,94.2c-59.3,36.8-104.4,40.9-405.2,40.9C1957.8,2075.6,1888.2,2069.5,1828.9,2038.8z"/><path d="M1687.7-1057.9c-40.9-12.3-122.8-77.8-214.9-169.9c-79.8-81.9-186.3-176-237.4-206.7c-122.8-77.8-307-133-442.1-133H682.7V-2775v-1207.5H559.9c-223.1,0-384.8-108.5-440-294.7c-47.1-157.6-10.2-294.7,106.4-405.2c133-126.9-233.3-118.7,4774.9-118.7c4079,0,4574.4,4.1,4641.9,32.7c257.9,106.4,339.8,431.9,161.7,636.5c-90.1,102.3-202.6,149.4-356.1,149.4h-128.9V-2775v1207.5h-112.6c-131,0-323.4,59.4-444.1,135.1c-47.1,30.7-145.3,116.6-221,194.4c-151.5,153.5-239.5,202.6-368.4,202.6s-216.9-49.1-368.4-202.6c-161.7-165.8-257.9-231.3-427.8-288.6c-325.4-108.5-691.8,0-941.5,280.4c-169.9,190.3-354.1,251.7-530.1,180.1c-40.9-18.4-149.4-106.4-241.5-194.4c-118.7-116.7-206.7-182.1-307-229.2c-131-63.4-155.6-67.5-356.1-67.5c-200.6,0-225.1,4.1-356.1,67.5c-100.3,47.1-188.3,112.6-307,229.2c-92.1,88-200.6,176-241.5,194.4c-174,71.6-364.3,8.2-526-176c-196.5-225.1-462.6-339.8-749.1-321.3c-219,14.3-405.2,108.5-609.9,313.1C2004.9-1043.5,1890.3-1000.6,1687.7-1057.9z"/></g></g>
</svg>